<svg width="61" height="58" viewBox="0 0 61 58" fill="none" xmlns="http://www.w3.org/2000/svg">
<path d="M44.4791 15.7084H44.5045M17.7916 4.83337H43.2083C50.2269 4.83337 55.9166 10.2433 55.9166 16.9167V41.0834C55.9166 47.7568 50.2269 53.1667 43.2083 53.1667H17.7916C10.773 53.1667 5.08325 47.7568 5.08325 41.0834V16.9167C5.08325 10.2433 10.773 4.83337 17.7916 4.83337ZM40.6666 27.4775C40.9803 29.4888 40.619 31.5429 39.6341 33.3477C38.6492 35.1524 37.0908 36.616 35.1807 37.5301C33.2706 38.4442 31.106 38.7624 28.9947 38.4394C26.8834 38.1164 24.9331 37.1686 23.421 35.7308C21.9089 34.2931 20.9121 32.4387 20.5723 30.4312C20.2326 28.4238 20.5673 26.3656 21.5287 24.5494C22.4901 22.7333 24.0293 21.2516 25.9274 20.3151C27.8255 19.3787 29.9859 19.0351 32.1012 19.3334C34.2588 19.6376 36.2564 20.5936 37.7988 22.0601C39.3412 23.5267 40.3466 25.426 40.6666 27.4775Z" stroke="#1E1E1E" stroke-width="4" stroke-linecap="round" stroke-linejoin="round"/>
</svg>
